<svg width="280" height="75" viewBox="0 0 280 75" xmlns="http://www.w3.org/2000/svg">
  <!-- Fundo preto -->
  <rect width="280" height="75" fill="#000000"/>
  
  <!-- Símbolo tipográfico - CS estilizado -->
  <g fill="#D4AF37">
    <!-- C grande -->
    <path d="M 20 37.5 Q 20 20, 37.5 20 L 50 20 Q 60 20, 60 30 L 60 45 Q 60 55, 50 55 L 37.5 55 Q 20 55, 20 37.5" 
          fill="none" stroke="#D4AF37" stroke-width="4" stroke-linecap="round"/>
    <!-- S estilizado -->
    <path d="M 70 30 Q 70 20, 80 20 L 90 20 Q 100 20, 100 30 L 100 37.5 Q 100 45, 90 45 L 80 45 Q 70 45, 70 55 L 70 60 Q 70 70, 80 70 L 90 70 Q 100 70, 100 60" 
          fill="none" stroke="#D4AF37" stroke-width="4" stroke-linecap="round"/>
  </g>
  
  <!-- Texto principal -->
  <text x="115" y="45" font-family="'Inter', 'Arial', sans-serif" font-size="30" font-weight="600" fill="#D4AF37" letter-spacing="4">
    COBERSYSTEM
  </text>
  
  <!-- Tagline -->
  <text x="115" y="62" font-family="'Inter', 'Arial', sans-serif" font-size="10" fill="#D4AF37" opacity="0.7" letter-spacing="3" font-weight="300">
    SOLUÇÕES EM COBERTURAS
  </text>
</svg>

